<svg xmlns="http://www.w3.org/2000/svg" fill="none" viewBox="0 0 48 48" height="48" width="48">
<path fill="white" d="M23.1356 7.71C23.1356 8.2 23.5055 8.56 23.9954 8.56C24.4853 8.56 24.8252 8.22 24.8652 7.72V1.2C24.8652 0.820001 24.8152 0.35 24.3353 0.0200005L24.3053 0H23.6555L23.5555 0.0900001C23.3455 0.28 23.1056 0.499999 23.1056 0.879999V7.72L23.1356 7.71ZM36.7025 23.79C36.6825 22.73 36.5825 21.89 36.4125 21.12C35.6127 17.63 33.5032 14.73 30.4739 12.96C27.4046 11.16 23.7854 10.73 20.2762 11.76C15.3573 13.2 11.6882 17.75 11.3483 22.83C11.1083 26.42 12.2181 29.61 14.6475 32.29C15.9372 33.73 16.777 35.25 17.1769 36.94C17.4669 38.15 17.4669 39.41 17.4769 40.63V41.04C17.4769 42.84 18.5466 44.13 20.3162 44.5C20.5462 44.55 20.5961 44.6 20.6061 44.83C20.7161 46.61 22.2058 48 24.0254 48C25.835 48 27.3246 46.61 27.4246 44.85C27.4346 44.6 27.4846 44.54 27.7445 44.49C29.2342 44.18 30.2939 43.12 30.5039 41.72C30.5839 41.19 30.5739 40.63 30.5539 40.1V39.89C30.4839 36.91 31.4437 34.38 33.4732 32.16C35.5827 29.86 36.6725 27.04 36.7125 23.79H36.7025ZM24.0254 46.27C23.1756 46.27 22.3657 45.59 22.3158 44.78C22.3158 44.65 22.3158 44.6 22.3457 44.59C22.3557 44.58 22.3957 44.56 22.4957 44.56H22.5257C22.8656 44.57 23.2156 44.56 23.5555 44.56H25.495C25.605 44.56 25.635 44.57 25.655 44.59C25.675 44.61 25.685 44.67 25.675 44.77C25.635 45.56 24.8652 46.26 24.0254 46.27ZM28.8443 38.59C28.7643 39.15 28.7743 39.73 28.7843 40.28V41.03C28.7643 42.15 28.0844 42.83 26.9547 42.83H21.026C19.8963 42.83 19.2165 42.16 19.1965 41.03V40.28C19.1965 39.7 19.2065 39.1 19.1365 38.5C19.1265 38.38 19.1365 38.34 19.1465 38.33C19.1665 38.3 19.2565 38.3 19.3564 38.3H28.5343C28.6443 38.3 28.7843 38.3 28.8243 38.35C28.8443 38.37 28.8643 38.44 28.8443 38.59ZM29.1942 36.35C29.1442 36.56 29.0742 36.57 28.8543 36.57H19.1565C18.9265 36.57 18.8565 36.57 18.8066 36.36C18.3467 34.49 17.3669 32.73 15.8172 30.98C13.2078 28.02 12.378 24.06 13.5877 20.39C14.8175 16.67 17.8968 13.96 21.8159 13.14C24.7152 12.53 27.7945 13.17 30.2839 14.9C32.7334 16.61 34.383 19.24 34.8129 22.12C35.3028 25.46 34.423 28.44 32.1835 30.97C30.6339 32.73 29.6541 34.49 29.1942 36.35ZM12.588 34.1C12.0981 33.91 11.7482 34.18 11.5282 34.4C10.6984 35.23 9.86859 36.05 9.03878 36.87C8.17898 37.72 7.31917 38.58 6.45936 39.43C6.22942 39.66 6.09945 39.92 6.09945 40.17C6.09945 40.38 6.18943 40.58 6.35939 40.75C6.52935 40.92 6.7393 41.01 6.94925 41.01C7.1992 41.01 7.45914 40.9 7.68909 40.66C8.71885 39.64 9.74862 38.62 10.7784 37.59L12.7979 35.59C12.9479 35.45 13.1378 35.22 13.1278 34.94C13.1278 34.53 12.9479 34.24 12.588 34.1ZM36.5125 34.45C36.4025 34.35 36.3026 34.24 36.1726 34.16C36.042 34.074 35.8891 34.0281 35.7327 34.0281C35.5763 34.0281 35.4234 34.074 35.2928 34.16C34.9929 34.33 34.8529 34.61 34.8629 34.97C34.8829 35.25 35.0329 35.44 35.2028 35.61L37.3823 37.76L40.3217 40.67C40.4316 40.78 40.5416 40.86 40.6516 40.91C40.7715 40.97 40.9015 41 41.0315 41C41.1915 41 41.3514 40.96 41.4914 40.87C41.7413 40.71 41.9013 40.45 41.9013 40.15C41.9013 39.77 41.6514 39.53 41.4714 39.35L36.5225 34.45H36.5125ZM7.44914 8.1L7.50913 8.16C8.99879 9.63 10.4784 11.11 11.9681 12.58L12.0081 12.61C12.1081 12.71 12.2181 12.82 12.338 12.9C12.488 13 12.638 13.04 12.7879 13.04C12.9279 13.04 13.0679 13 13.2178 12.93C13.4878 12.78 13.6477 12.54 13.6677 12.22C13.6677 11.84 13.4778 11.62 13.2578 11.42L8.66886 6.87C8.57888 6.78 8.47891 6.68 8.35893 6.61C7.98902 6.39 7.6191 6.42 7.30917 6.72C6.98924 7.03 6.93926 7.42 7.1792 7.8C7.25918 7.92 7.35916 8.01 7.44914 8.11V8.1ZM35.2028 13.02H35.2528C35.5527 13.02 35.7627 12.83 35.9626 12.64C36.7425 11.87 37.5223 11.1 38.3021 10.32L39.6818 8.95C40.0117 8.62 40.3516 8.29 40.6816 7.95C40.9715 7.65 41.0415 7.31 40.8915 6.97C40.8282 6.81947 40.7229 6.69038 40.5881 6.59817C40.4534 6.50595 40.2949 6.45451 40.1317 6.45C39.7518 6.43 39.5118 6.67 39.3219 6.87C38.5821 7.6 37.8522 8.33 37.1224 9.06C36.3426 9.84 35.5527 10.61 34.7729 11.39C34.6629 11.5 34.543 11.62 34.453 11.78C34.313 12.04 34.323 12.34 34.463 12.59C34.613 12.85 34.8929 13.01 35.2128 13.02H35.2028ZM7.60911 24.13C7.96902 24.13 8.24896 24.03 8.43892 23.84C8.58888 23.69 8.65886 23.49 8.65886 23.26C8.65886 22.75 8.22896 22.41 7.6291 22.41H1.0406C0.690681 22.41 0.400745 22.51 0.220786 22.7C0.07082 22.85 -0.00916111 23.06 0.000836611 23.29C0.000836611 23.82 0.410743 24.13 1.07059 24.14H7.60911V24.13ZM47.76 22.69C47.58 22.5 47.3101 22.41 46.9901 22.41H40.3616C39.7518 22.41 39.3519 22.76 39.3419 23.27C39.3419 23.53 39.4419 23.74 39.6218 23.9C39.8018 24.05 40.0517 24.13 40.3516 24.13H46.9801C47.6 24.13 47.9899 23.79 47.9999 23.28C48.0031 23.0609 47.9206 22.8491 47.77 22.69H47.76Z"></path>
</svg>
