<svg width="48" height="48" viewBox="0 0 48 48" fill="none" xmlns="http://www.w3.org/2000/svg">
<path d="M29.6063 47.9997C31.0224 48.0141 32.3568 47.5006 33.3313 46.5551C34.3057 45.6096 34.8482 44.2993 34.8626 42.8691C34.8482 41.4868 34.3009 40.2054 33.3217 39.2599C32.3664 38.3431 31.0752 37.8392 29.6735 37.8392C29.6303 37.8392 29.5919 37.8392 29.5487 37.8392C26.7069 37.8968 24.614 40.0086 24.5708 42.8643C24.5516 44.2513 25.0605 45.5376 26.0013 46.4975C26.9422 47.4526 28.2238 47.9853 29.6063 47.9997ZM29.6063 39.2503C31.776 39.2359 33.3745 40.7525 33.4369 42.9315V42.9411C33.4129 44.9616 31.7808 46.5695 29.7215 46.6031C29.7023 46.6031 29.6831 46.6031 29.6591 46.6031C28.699 46.6031 27.7582 46.2143 27.0718 45.5328C26.3517 44.8225 25.9677 43.877 25.9869 42.8787C26.0301 40.7909 27.5518 39.2646 29.6063 39.2551V39.2503Z" fill="white"/>
<path d="M47.7432 21.8473C47.3352 19.4908 46.1063 17.4318 44.0902 15.7328C42.1173 14.0721 39.7124 13.2322 36.9427 13.2322H36.9379C28.9311 13.2322 20.7947 13.2706 12.9223 13.3042L9.8837 13.3186C8.78925 13.3186 7.67079 13.6114 6.24512 14.2497C4.76664 14.9168 3.47538 15.9151 2.40492 17.2206C1.44007 18.4013 0.753638 19.7163 0.369619 21.1226C0.268814 21.4921 0.187209 21.8713 0.105605 22.2457C0.0720036 22.404 0.0384019 22.5624 0 22.7256V25.2645L0.0480024 25.4661C0.0960049 25.6629 0.144007 25.8597 0.182409 26.0565C0.552028 28.0195 1.45447 29.7857 2.88015 31.3167C3.941 32.459 5.19386 33.3373 6.60513 33.9228C7.53638 34.3116 8.76524 34.7531 10.0373 34.7579C19.3786 34.7819 28.6767 34.7723 36.5395 34.7579C37.5379 34.7579 38.3875 34.6955 39.1364 34.5708C40.9653 34.2684 42.6694 33.4525 44.2054 32.1422C45.5591 30.9903 46.5864 29.5505 47.2632 27.8707C47.7048 26.7716 47.9352 25.5573 47.9976 23.9399C48.0168 23.3975 47.916 22.8456 47.8104 22.2553L47.7384 21.8473H47.7432ZM44.383 29.2385C43.2982 30.736 41.8005 31.8062 39.9428 32.4254C38.9684 32.7517 37.9555 32.8765 36.7507 32.9005C33.6545 32.9005 30.5631 32.9005 27.467 32.9005H23.9868C23.9868 32.9005 23.9484 32.9005 23.9292 32.9005C22.6427 32.9005 21.3563 32.9005 20.065 32.9005C18.7978 32.9005 17.5113 32.9005 16.22 32.9005C14.2135 32.9005 12.1926 32.8957 10.1909 32.8717C8.69804 32.8573 7.21957 32.3342 5.67389 31.2735C4.47383 30.448 3.56178 29.4305 2.95695 28.2402C2.56333 27.4675 2.26091 26.5556 2.0257 25.4517C1.65128 23.6807 1.8865 21.8953 2.73614 20.1387C3.37457 18.8188 4.28182 17.7149 5.43388 16.8702C6.53313 16.0591 7.81 15.5168 9.32687 15.2096C9.73489 15.128 10.1813 15.0896 10.7381 15.0896C19.4314 15.0848 28.1198 15.0752 36.8131 15.0896C38.9972 15.0896 40.8933 15.6704 42.4342 16.8126C44.335 18.2189 45.5159 20.0811 45.9383 22.3513C46.404 24.8566 45.8807 27.1699 44.383 29.2337V29.2385Z" fill="white"/>
<path d="M44.8293 38.5159C44.8293 38.5159 44.8293 38.4871 44.8293 38.4727C44.8149 38.4391 44.8053 38.4055 44.7909 38.3671C44.7573 38.2663 44.7237 38.1703 44.6757 38.1031C44.5029 37.8488 44.2197 37.7768 43.8453 37.8872C43.4661 37.9975 43.4085 38.3767 43.4085 38.5975C43.3989 39.6486 43.4037 40.6949 43.4085 41.7459V42.3315C43.4085 42.4755 43.4181 42.6243 43.4325 42.7682L43.5285 44.1889C43.5381 44.2993 43.4661 44.4001 43.3605 44.4337L43.2357 44.4769C43.1301 44.5153 43.0149 44.4769 42.9525 44.3857L38.6949 38.3143C38.3301 37.7912 38.0181 37.7912 37.7349 37.8728C37.6197 37.9064 37.3125 37.9879 37.3125 38.7367V42.1059C37.3125 43.7425 37.3125 45.3792 37.3125 47.0158C37.3125 47.5581 37.4373 47.8269 37.7637 47.9853H38.2197C38.5989 47.7693 38.7525 47.4381 38.7429 46.8622C38.7285 45.6239 38.7333 44.3857 38.7429 43.1474V41.7124H38.8437L38.9013 41.7027L38.7429 41.6884C38.7381 41.5828 38.8005 41.4628 38.9061 41.4292C39.0069 41.3908 39.1221 41.41 39.1845 41.4964L39.2325 41.5636L40.2789 43.0418C41.3013 44.4865 42.3237 45.9311 43.3461 47.3757C43.7541 47.9565 44.0373 47.9517 44.2677 47.8749C44.7333 47.7117 44.9397 47.4141 44.9301 46.915C44.8965 44.8416 44.8773 42.7634 44.8533 40.6901L44.8293 38.5159Z" fill="white"/>
<path d="M8.07984 10.1989C9.49591 10.2133 10.8304 9.69976 11.8048 8.75426C12.7793 7.80876 13.3217 6.4985 13.3361 5.06825C13.3217 3.686 12.7745 2.40453 11.7952 1.45903C10.84 0.542329 9.54392 0.0431824 8.14225 0.0431824C8.09904 0.0431824 8.06064 0.0431824 8.01744 0.0431824C5.1757 0.100776 3.08279 2.21255 3.03959 5.06825C3.02039 6.4553 3.52921 7.74156 4.47006 8.70146C5.41091 9.65656 6.69257 10.1893 8.07504 10.2037L8.07984 10.1989ZM8.07984 1.44943C10.2496 1.43503 11.848 2.95167 11.9104 5.13064V5.14024C11.8864 7.16083 10.2544 8.76865 8.19505 8.80225C8.17585 8.80225 8.15665 8.80225 8.13264 8.80225C7.1726 8.80225 6.23175 8.41349 5.54531 7.73197C4.82528 7.02164 4.44126 6.07614 4.46046 5.07785C4.50366 2.99007 6.02534 1.46383 8.07984 1.45423V1.44943Z" fill="white"/>
<path d="M15.7891 9.46461C15.7891 9.78137 15.9475 9.97335 16.3315 10.1269C16.5523 10.2133 16.9363 10.0165 17.0467 9.75258C17.1283 9.5558 17.1763 9.33502 17.1811 9.12864C17.1907 8.36072 17.1907 7.59761 17.1907 6.80569V5.92258C17.1907 5.7882 17.2963 5.67781 17.4307 5.67781H18.0739C18.6115 5.67781 19.1299 5.68261 19.6435 5.66821C19.8067 5.66821 19.9891 5.61062 20.1283 5.52423C20.3779 5.37064 20.4547 5.09707 20.3491 4.71311C20.2579 4.36275 19.9123 4.28116 19.6435 4.27636C19.1299 4.26196 18.6115 4.26676 18.0979 4.27156H17.4547C17.3203 4.27156 17.2099 4.16597 17.2099 4.03159V1.66064C17.2099 1.52625 17.3203 1.41586 17.4547 1.41586H18.0787C18.6979 1.41586 19.3075 1.41586 19.9171 1.41586C20.0659 1.41586 20.1763 1.39667 20.2387 1.35827C20.6371 1.13749 20.7571 0.878321 20.6563 0.475164C20.6035 0.249588 20.2723 0.019212 19.8211 0.0144125C19.2547 0.0144125 18.6835 0.00961304 18.1171 0.00961304C17.5987 0.00961304 17.0803 0.00961304 16.5619 0.0144125C16.0243 0.0144125 15.7939 0.239989 15.7939 0.763133C15.7939 2.36136 15.7939 3.95959 15.7939 5.55782C15.7939 6.85848 15.7939 8.16395 15.7939 9.46461H15.7891Z" fill="white"/>
<path d="M23.8283 10.1317C23.9675 10.1509 24.1451 10.0789 24.2987 9.93974C24.5051 9.75736 24.6347 9.49819 24.6299 9.27741C24.6155 8.5047 24.6251 7.72238 24.6299 6.96406C24.6299 6.64729 24.6347 6.33053 24.6395 6.01376C24.6395 6.00416 24.6443 5.99456 24.6443 5.98016C24.6443 5.95617 24.6491 5.93697 24.6587 5.91777C24.6731 5.88897 24.6923 5.86018 24.7163 5.83618L24.8027 5.75939C24.8027 5.75939 24.8555 5.72099 24.8843 5.71139C24.8939 5.71139 24.9035 5.71139 24.9131 5.70659C24.9323 5.70659 24.9467 5.69699 24.9659 5.69699H25.5995C26.1179 5.69699 26.6411 5.69219 27.1595 5.6778C27.4907 5.6682 27.7115 5.50502 27.8459 5.16905C27.9563 4.89548 27.8843 4.6699 27.6443 4.52592C27.4187 4.39153 27.1259 4.30034 26.8523 4.28594C26.3915 4.25715 25.9211 4.26195 25.4603 4.27155C25.2683 4.27155 25.0763 4.27155 24.8843 4.27155C24.7499 4.27155 24.6395 4.16116 24.6395 4.02677V1.66062C24.6395 1.52624 24.7499 1.41585 24.8843 1.41585H25.5707C26.1803 1.41585 26.7851 1.42065 27.3851 1.40625C27.5339 1.40625 27.6971 1.35346 27.8075 1.27666C28.2251 0.983895 28.2107 0.734322 28.1435 0.551941C28.0235 0.201579 27.7499 0.019198 27.3227 0.0143985C26.7659 0.00479949 26.1947 0 25.6139 0C25.0331 0 24.4379 0 23.8379 0.0143985C23.4587 0.019198 23.1947 0.259172 23.1947 0.595137C23.1851 3.57562 23.1851 6.5513 23.1947 9.53179C23.1947 9.87255 23.5067 10.0885 23.8139 10.1269L23.8283 10.1317Z" fill="white"/>
<path d="M40.0856 23.0615H18.7534C18.7534 23.0615 18.715 23.0615 18.691 23.0663C18.571 23.0759 18.3885 23.0951 18.2013 23.0039C17.8941 22.8551 17.6973 22.6584 17.6301 22.428C17.3229 21.4249 16.8525 20.6042 16.19 19.9323C15.182 18.9052 14.0011 18.31 12.5755 18.1181C12.2442 18.0749 11.9226 18.0509 11.6154 18.0509C10.7226 18.0509 9.90652 18.238 9.13848 18.6124C6.51275 19.8987 5.22628 22.5288 5.86471 25.3173C6.25353 27.0067 7.26639 28.3938 8.71606 29.2193C10.1705 30.0448 11.9034 30.208 13.6027 29.6848C15.5708 29.0753 16.9101 27.7266 17.5725 25.6772C17.7933 24.9909 18.2253 24.9333 18.6094 24.9333H18.6142C21.4943 24.9333 24.3793 24.9333 27.2594 24.9333H32.4485C35.0454 24.9333 37.6375 24.9285 40.2345 24.9381H40.2393C40.6233 24.9381 40.9449 24.7653 41.1225 24.4678C41.2953 24.1702 41.2857 23.8102 41.1033 23.4983C40.9209 23.1863 40.6329 23.0663 40.076 23.0663L40.0856 23.0615ZM14.7212 26.8867C13.9531 27.6546 12.9451 28.0914 11.961 28.0914C11.8698 28.0914 11.7786 28.0914 11.6826 28.0818C10.7562 28.1442 9.77691 27.7698 8.99447 27.0547C8.10643 26.2388 7.6024 25.1301 7.6072 24.007C7.612 22.8599 8.10163 21.7561 8.95127 20.9785C9.76731 20.225 10.8474 19.8507 11.9898 19.9227C14.0635 20.0522 15.6668 21.5401 15.8972 23.5367C16.0412 24.7749 15.6092 25.994 14.7212 26.8867Z" fill="white"/>
</svg>
