<svg width="46" height="48" viewBox="0 0 46 48" fill="none" xmlns="http://www.w3.org/2000/svg">
<path fill-rule="evenodd" clip-rule="evenodd" d="M1.08594 47.3271C1.08594 46.9555 1.42959 46.6542 1.8535 46.6542H44.7296C45.1535 46.6542 45.4972 46.9555 45.4972 47.3271C45.4972 47.6987 45.1535 48 44.7296 48H1.8535C1.42959 48 1.08594 47.6987 1.08594 47.3271Z" fill="white"/>
<path fill-rule="evenodd" clip-rule="evenodd" d="M4.545 21.9813C4.96681 21.9813 5.30876 22.3204 5.30876 22.7386V46.4854H41.2818V22.8107C41.2818 22.3925 41.6237 22.0535 42.0455 22.0535C42.4673 22.0535 42.8093 22.3925 42.8093 22.8107V47.2427C42.8093 47.661 42.4673 48 42.0455 48H4.545C4.12319 48 3.78125 47.661 3.78125 47.2427V22.7386C3.78125 22.3204 4.12319 21.9813 4.545 21.9813Z" fill="white"/>
<path fill-rule="evenodd" clip-rule="evenodd" d="M22.6797 14.3944C22.8357 13.9963 23.2775 13.8029 23.6665 13.9625L45.0268 22.7266C45.4158 22.8862 45.6048 23.3383 45.4488 23.7365C45.2928 24.1346 44.851 24.3279 44.462 24.1683L23.1017 15.4043C22.7127 15.2446 22.5237 14.7925 22.6797 14.3944Z" fill="white"/>
<path fill-rule="evenodd" clip-rule="evenodd" d="M23.912 14.3944C24.071 14.7925 23.8783 15.2446 23.4817 15.4043L1.70255 24.1683C1.30589 24.3279 0.855427 24.1346 0.696402 23.7365C0.537376 23.3383 0.73001 22.8862 1.12666 22.7266L22.9058 13.9625C23.3025 13.8029 23.7529 13.9963 23.912 14.3944Z" fill="white"/>
<path fill-rule="evenodd" clip-rule="evenodd" d="M9.28125 31.44C9.28125 31.0424 9.61813 30.72 10.0337 30.72H36.3688C36.7844 30.72 37.1213 31.0424 37.1213 31.44C37.1213 31.8376 36.7844 32.16 36.3688 32.16H10.0337C9.61813 32.16 9.28125 31.8376 9.28125 31.44Z" fill="white"/>
<path fill-rule="evenodd" clip-rule="evenodd" d="M9.28125 37.2C9.28125 36.8024 9.61813 36.48 10.0337 36.48H36.3688C36.7844 36.48 37.1213 36.8024 37.1213 37.2C37.1213 37.5976 36.7844 37.92 36.3688 37.92H10.0337C9.61813 37.92 9.28125 37.5976 9.28125 37.2Z" fill="white"/>
<path fill-rule="evenodd" clip-rule="evenodd" d="M9.28125 42.48C9.28125 42.0824 9.61813 41.76 10.0337 41.76H36.3688C36.7844 41.76 37.1213 42.0824 37.1213 42.48C37.1213 42.8776 36.7844 43.2 36.3688 43.2H10.0337C9.61813 43.2 9.28125 42.8776 9.28125 42.48Z" fill="white"/>
<path fill-rule="evenodd" clip-rule="evenodd" d="M8.79688 26.7725C8.79688 26.3562 9.14428 26.0187 9.57284 26.0187H36.7312C37.1597 26.0187 37.5072 26.3562 37.5072 26.7725V47.2462C37.5072 47.6625 37.1597 48 36.7312 48H9.57284C9.14428 48 8.79688 47.6625 8.79688 47.2462V26.7725ZM10.3488 27.5264V46.4923H35.9552V27.5264H10.3488Z" fill="white"/>
<path d="M24.4494 21.0847C24.4494 21.8283 23.8469 22.4311 23.1036 22.4311C22.3603 22.4311 21.7578 21.8283 21.7578 21.0847C21.7578 20.3411 22.3603 19.7383 23.1036 19.7383C23.8469 19.7383 24.4494 20.3411 24.4494 21.0847Z" fill="white"/>
<path fill-rule="evenodd" clip-rule="evenodd" d="M19.5387 6.56173C19.782 6.78101 20.1811 6.7852 20.4302 6.57109C21.943 5.27075 24.4019 5.27075 25.9148 6.57109C26.1639 6.7852 26.563 6.78101 26.8062 6.56173C27.0494 6.34245 27.0447 5.99112 26.7956 5.77701C24.7929 4.05564 21.552 4.05564 19.5494 5.77701C19.3003 5.99112 19.2955 6.34245 19.5387 6.56173Z" fill="white"/>
<path fill-rule="evenodd" clip-rule="evenodd" d="M16.1825 3.40792C16.43 3.64506 16.8361 3.64959 17.0895 3.41804C20.3263 0.460983 25.5803 0.460983 28.817 3.41804C29.0705 3.64959 29.4766 3.64506 29.7241 3.40792C29.9715 3.17078 29.9667 2.79083 29.7132 2.55928C25.9781 -0.853095 19.9284 -0.853095 16.1933 2.55928C15.9399 2.79083 15.935 3.17078 16.1825 3.40792Z" fill="white"/>
<path d="M24.0552 8.46896C24.5808 8.99446 24.5808 9.84655 24.0552 10.3722C23.5297 10.8977 22.6776 10.8977 22.152 10.3722C21.6264 9.84655 21.6264 8.99446 22.152 8.46896C22.6776 7.94337 23.5297 7.94337 24.0552 8.46896Z" fill="white"/>
</svg>
