<svg xmlns="http://www.w3.org/2000/svg" fill="none" viewBox="0 0 80 80" height="80" width="80">
<g clip-path="url(#clip0_357_223)">
<path fill="white" d="M77.0188 0.00209921H2.80607C2.65342 -0.000141623 2.50077 -0.00238246 2.34812 0.00209921C1.04835 0.0558792 0.0516317 1.03961 0.0269383 2.29223C-0.00897943 4.2059 -0.00897943 6.0658 0.0269383 7.82261C0.0538766 9.04162 1.03039 10.0119 2.29873 10.0791C2.4671 10.0881 2.63995 10.0859 2.84424 10.0836C2.94974 10.0836 3.06423 10.0814 3.18994 10.0814H3.65687L2.89138 12.3715C2.43118 13.7474 1.98221 15.0874 1.53997 16.4274C1.34691 17.0123 1.34243 17.4425 1.52875 17.7114C1.71283 17.9758 2.11241 18.126 2.71628 18.1529C2.81281 18.1573 2.91158 18.1685 3.02158 18.182C3.07097 18.1887 3.12484 18.1954 3.18321 18.2022L3.58728 18.247L3.38749 18.9013C3.33586 19.0738 3.28647 19.2374 3.23484 19.3965C3.04178 19.9791 2.84872 20.5595 2.65567 21.1399C2.27404 22.2894 1.87895 23.4793 1.49957 24.6513C1.38957 24.9896 1.30651 25.4602 1.53099 25.7807C1.75997 26.1123 2.25384 26.2019 2.62648 26.2199C2.74097 26.2243 2.85546 26.2355 2.98117 26.2467L3.56708 26.296L3.45933 26.6859C3.43688 26.7666 3.41667 26.8428 3.39872 26.9168C3.35831 27.0759 3.3179 27.2282 3.26851 27.3784C3.06199 28.0013 2.85546 28.6243 2.64669 29.2472C2.26057 30.408 1.85874 31.6068 1.47936 32.7922C1.38283 33.0947 1.31324 33.5227 1.53324 33.8454C1.71283 34.1076 2.06078 34.26 2.53669 34.2869C2.66689 34.2936 2.79709 34.3025 2.93852 34.3115L3.56483 34.3518L3.45708 34.7485C3.43463 34.8291 3.41667 34.9053 3.39647 34.9793C3.35606 35.1384 3.3179 35.2885 3.26627 35.4409C3.06423 36.0526 2.85995 36.6644 2.65567 37.2761C2.25608 38.4727 1.84078 39.7097 1.45242 40.9332C1.3312 41.3163 1.35589 41.6525 1.5265 41.9034C1.7016 42.1611 2.02935 42.3202 2.45138 42.3516C2.59506 42.3628 2.73873 42.3695 2.90709 42.3763L3.62769 42.4121L1.60507 48.5161C1.36038 49.2534 1.33569 49.7419 1.53099 50.013C1.72854 50.2864 2.21343 50.4186 3.01035 50.4209C3.76687 50.4209 4.52114 50.4209 5.31582 50.4209H6.39785H6.73457V78.4021C6.73457 79.7601 6.97253 79.9976 8.33067 79.9976C29.4436 79.9976 50.5587 79.9976 71.6738 79.9976C73.0365 79.9976 73.2767 79.7601 73.2767 78.4066V50.5665L73.5326 50.5038C73.5932 50.4881 73.6381 50.4769 73.6717 50.4657C73.7436 50.4455 73.8064 50.4276 73.885 50.4276C74.4642 50.4253 75.0456 50.4231 75.6248 50.4231L77.1603 50.4186C77.8382 50.4164 78.2782 50.2797 78.4735 50.0108C78.6711 49.7374 78.6598 49.2623 78.4398 48.6013C78.0043 47.2882 77.5666 45.975 77.1266 44.6574L76.4015 42.4816L76.8078 42.43C77.8674 42.2978 78.368 42.1365 78.5341 41.8721C78.7002 41.6077 78.6284 41.0833 78.2872 40.0637L76.388 34.3832L76.8056 34.3406C76.8752 34.3339 76.9358 34.3272 76.9919 34.3205C77.1086 34.307 77.2052 34.2958 77.3017 34.2913C77.9033 34.2644 78.3006 34.1166 78.4825 33.8521C78.6688 33.5832 78.6643 33.1508 78.4713 32.5637C78.2288 31.8287 77.9819 31.0937 77.7349 30.3587C77.5441 29.794 77.3556 29.2315 77.167 28.6668C77.0211 28.2254 76.8796 27.7817 76.736 27.3268L76.4015 26.2804L77.0458 26.24C77.149 26.2333 77.2209 26.2288 77.295 26.2266C77.8943 26.2064 78.2894 26.0608 78.4757 25.7963C78.6643 25.5252 78.6643 25.0927 78.4713 24.5056C78.2266 23.7594 77.9774 23.0155 77.7282 22.2715C77.5868 21.8502 77.4454 21.429 77.3062 21.0077C77.1199 20.4475 76.9358 19.8895 76.745 19.3114L76.3858 18.2201L77.0301 18.1753C77.1378 18.1663 77.2119 18.1618 77.286 18.1596C77.8876 18.1372 78.2894 17.9915 78.4757 17.7271C78.6643 17.4582 78.6643 17.028 78.4757 16.4453C78.2557 15.7664 78.029 15.0919 77.8023 14.4151C77.6833 14.0588 77.5643 13.7003 77.4454 13.344L76.3903 10.1531L77.0301 10.1083C77.1378 10.0993 77.2141 10.0948 77.2905 10.0926C79.1335 10.0478 79.9933 9.17383 79.9978 7.34531C80 6.198 79.9978 5.0507 79.9978 3.90339V2.97569C79.9978 0.81104 79.1896 0.00658088 77.0166 0.00658088L77.0188 0.00209921ZM3.78483 48.3683L4.30115 46.8064C4.74787 45.4552 5.16766 44.1779 5.62337 42.8849C5.74908 42.5309 6.26989 42.3718 6.52131 42.3673C7.46415 42.3471 8.39128 42.3494 9.37453 42.3516C9.70003 42.3516 10.03 42.3516 10.3623 42.3516H10.699V48.366H3.78259L3.78483 48.3683ZM3.79381 16.089L4.27196 14.637C4.71196 13.3014 5.16766 11.9189 5.63235 10.5721C5.73561 10.2718 6.15316 10.0993 6.40234 10.0971C7.40579 10.0814 8.39352 10.0836 9.43963 10.0859H10.7327V16.089H3.79157H3.79381ZM10.7304 18.1529V24.1404H3.79381L4.2989 22.6121C4.72543 21.3192 5.16542 19.9836 5.62337 18.6839C5.74908 18.3276 6.26989 18.1708 6.52131 18.1663C7.46191 18.1461 8.39577 18.1484 9.38351 18.1506C9.71575 18.1506 10.0502 18.1506 10.3937 18.1506H10.7304V18.1529ZM4.3236 30.6164C4.60645 29.7581 4.88481 28.9156 5.16542 28.073C5.75582 26.305 5.87479 26.2199 7.7268 26.2199H10.7102V32.2477H3.78483L4.32135 30.6186L4.3236 30.6164ZM4.33707 38.6475C4.61543 37.8005 4.8893 36.9691 5.16542 36.14C5.75582 34.372 5.87479 34.2869 7.7268 34.2869H10.7102V40.3125H3.78483L4.33482 38.6475H4.33707ZM8.81107 50.4589H14.7577V69.8489H8.81107V50.4589ZM70.5559 18.1551C71.5706 18.1551 72.6234 18.1529 73.6538 18.1685C73.9232 18.173 74.2958 18.3926 74.3968 18.6817C74.8525 19.9993 75.2813 21.299 75.7348 22.6749L76.2286 24.1672H69.2943V18.1551H70.5559ZM69.31 16.1137V10.0903H70.5357C71.5706 10.0903 72.6391 10.0859 73.6987 10.106C73.9995 10.1105 74.325 10.3996 74.4126 10.655C74.8548 11.9413 75.2791 13.2208 75.728 14.5742L76.2376 16.1137H69.31ZM76.2309 32.232H69.2988V26.2221H70.5716C71.5818 26.2176 72.6279 26.2154 73.6538 26.2378C73.9793 26.2445 74.3272 26.5515 74.4215 26.8226C74.8638 28.0999 75.2813 29.3593 75.7213 30.6926L76.2309 32.232ZM70.5626 34.2869C71.6199 34.2846 72.6212 34.2824 73.6426 34.3048C73.9389 34.3115 74.3138 34.5916 74.4148 34.8829C74.857 36.1535 75.2701 37.4061 75.7101 38.7349L76.2264 40.2945H69.2763V34.2869H70.5604H70.5626ZM67.1908 48.3615H12.8518V42.4121H67.1908V48.3615ZM71.2024 50.4612V69.8803H65.258V50.4612H71.2024ZM55.1404 58.3893C55.1472 59.0033 54.9362 59.3551 54.3862 59.6464C52.8552 60.4576 52.1278 62.1315 52.5768 63.8166C53.0146 65.4591 54.4468 66.5616 56.1394 66.5616C57.832 66.5616 59.262 65.4569 59.6998 63.8143C60.1442 62.1516 59.4326 60.5024 57.8904 59.6128C57.722 59.5164 57.1765 59.1668 57.172 58.7299C57.1429 56.6369 57.1451 54.4969 57.1474 52.4264V50.4657H63.1321V69.8578H16.8881V50.4365H55.1315V51.8371C55.1315 52.4152 55.1315 52.9933 55.1315 53.5737C55.1292 55.1513 55.127 56.7826 55.1427 58.387L55.1404 58.3893ZM56.0968 61.1836C56.108 61.1836 56.1214 61.1836 56.1349 61.1836C56.5727 61.1836 57.0014 61.3628 57.318 61.6766C57.6435 62.0015 57.8231 62.4452 57.8141 62.8956C57.7939 63.8009 57.0441 64.5314 56.1394 64.5314H56.1259C55.2168 64.5247 54.4715 63.7785 54.4625 62.8709C54.4535 61.9612 55.1876 61.2037 56.0968 61.1813V61.1836ZM67.1886 32.2298H12.8496V26.2759H67.1864V32.2298H67.1886ZM67.1819 24.1359H12.8473V18.1865H67.1819V24.1359ZM67.1639 16.0801H12.8249V10.1284H67.1639V16.0801ZM67.1639 34.3294V40.2811H12.8249V34.3294H67.1617H67.1639ZM71.2226 77.9428H8.8178V71.9889H71.2204V77.9428H71.2226ZM69.3122 48.3795V42.3583H70.5491C71.575 42.3561 72.6346 42.3516 73.6852 42.3763C74.0287 42.383 74.343 42.746 74.4283 42.9925C74.8593 44.2317 75.2678 45.4686 75.7011 46.775L76.2354 48.3795H69.31H69.3122ZM77.919 8.01308H2.072V2.05918H77.919V8.01308Z"></path>
</g>
<defs>
<clipPath id="clip0_357_223">
<rect fill="white" height="80" width="80"></rect>
</clipPath>
</defs>
</svg>
